<?xml version="1.0" encoding="utf-8"?>
<!-- Generator: Adobe Illustrator 19.0.0, SVG Export Plug-In . SVG Version: 6.00 Build 0)  -->
<svg version="1.1" id="Layer_1" xmlns="http://www.w3.org/2000/svg" xmlns:xlink="http://www.w3.org/1999/xlink" x="0px" y="0px"
	 viewBox="0 0 512 512" style="enable-background:new 0 0 512 512;" xml:space="preserve">
<style type="text/css">
	.st0{fill:#ED4C5C;}
	.st1{fill:#FFE62E;}
</style>
<g id="XMLID_2_">
	<circle id="XMLID_4_" class="st0" cx="256" cy="256" r="256"/>
	<polygon id="XMLID_5_" class="st1" points="170.9,225.3 238.7,273.3 213.5,194.6 282,144.9 196.9,144.9 170.9,68.5 144.9,144.9 
		59.9,144.9 128.4,194.6 102.4,273.3 	"/>
	<polygon id="XMLID_6_" class="st1" points="284.4,284.4 264.7,288.3 283.6,296.2 283.6,315.9 296.2,300.9 315.1,308 304,291.4 
		315.9,276.5 296.2,280.4 284.4,264.7 	"/>
	<polygon id="XMLID_7_" class="st1" points="313.5,226.1 298.5,238.7 318.2,237.1 326.9,256 330,236.3 349.7,234.7 333.2,224.5 
		337.1,204.8 323,217.4 305.6,207.2 	"/>
	<polygon id="XMLID_8_" class="st1" points="318.2,159.9 324.5,179.6 330,160.7 349.7,160.7 334.8,148.1 340.3,129.2 324.5,141 
		308.8,128.4 315.1,147.3 298.5,158.3 	"/>
	<polygon id="XMLID_9_" class="st1" points="284.4,91.4 284.4,111.1 296.2,94.5 315.9,99.2 304,83.5 315.1,67.7 296.2,74.8 
		283.6,59.9 283.6,79.6 264.7,86.6 	"/>
</g>
</svg>
